<svg xmlns="http://www.w3.org/2000/svg" version="1.1" xmlns:xlink="http://www.w3.org/1999/xlink" xmlns:svgjs="http://svgjs.dev/svgjs" width="2000" height="560" preserveAspectRatio="none" viewBox="0 0 2000 560"><g mask="url(&quot;#SvgjsMask1052&quot;)" fill="none"><path d="M592 399L250 57" stroke-width="6" stroke="url(&quot;#SvgjsLinearGradient1053&quot;)" stroke-linecap="round" class="BottomRight"></path><path d="M1213 248L826 -139" stroke-width="6" stroke="url(&quot;#SvgjsLinearGradient1054&quot;)" stroke-linecap="round" class="TopLeft"></path><path d="M1454 250L1056 -148" stroke-width="10" stroke="url(&quot;#SvgjsLinearGradient1054&quot;)" stroke-linecap="round" class="TopLeft"></path><path d="M1212 74L1358 220" stroke-width="8" stroke="url(&quot;#SvgjsLinearGradient1053&quot;)" stroke-linecap="round" class="BottomRight"></path><path d="M72 450L-236 142" stroke-width="8" stroke="url(&quot;#SvgjsLinearGradient1053&quot;)" stroke-linecap="round" class="BottomRight"></path><path d="M1396 281L1745 630" stroke-width="10" stroke="url(&quot;#SvgjsLinearGradient1053&quot;)" stroke-linecap="round" class="BottomRight"></path><path d="M566 426L776 636" stroke-width="6" stroke="url(&quot;#SvgjsLinearGradient1054&quot;)" stroke-linecap="round" class="TopLeft"></path><path d="M1642 299L1481 138" stroke-width="6" stroke="url(&quot;#SvgjsLinearGradient1053&quot;)" stroke-linecap="round" class="BottomRight"></path><path d="M1578 440L1159 21" stroke-width="10" stroke="url(&quot;#SvgjsLinearGradient1053&quot;)" stroke-linecap="round" class="BottomRight"></path><path d="M1511 156L1687 332" stroke-width="6" stroke="url(&quot;#SvgjsLinearGradient1054&quot;)" stroke-linecap="round" class="TopLeft"></path><path d="M1022 111L723 -188" stroke-width="10" stroke="url(&quot;#SvgjsLinearGradient1053&quot;)" stroke-linecap="round" class="BottomRight"></path><path d="M1724 287L1554 117" stroke-width="10" stroke="url(&quot;#SvgjsLinearGradient1054&quot;)" stroke-linecap="round" class="TopLeft"></path><path d="M799 43L451 -305" stroke-width="8" stroke="url(&quot;#SvgjsLinearGradient1054&quot;)" stroke-linecap="round" class="TopLeft"></path><path d="M1557 223L1952 618" stroke-width="8" stroke="url(&quot;#SvgjsLinearGradient1053&quot;)" stroke-linecap="round" class="BottomRight"></path><path d="M1500 441L1743 684" stroke-width="6" stroke="url(&quot;#SvgjsLinearGradient1053&quot;)" stroke-linecap="round" class="BottomRight"></path><path d="M997 216L743 -38" stroke-width="6" stroke="url(&quot;#SvgjsLinearGradient1054&quot;)" stroke-linecap="round" class="TopLeft"></path><path d="M508 307L260 59" stroke-width="6" stroke="url(&quot;#SvgjsLinearGradient1053&quot;)" stroke-linecap="round" class="BottomRight"></path><path d="M592 453L812 673" stroke-width="10" stroke="url(&quot;#SvgjsLinearGradient1054&quot;)" stroke-linecap="round" class="TopLeft"></path><path d="M1260 223L905 -132" stroke-width="10" stroke="url(&quot;#SvgjsLinearGradient1054&quot;)" stroke-linecap="round" class="TopLeft"></path><path d="M309 31L607 329" stroke-width="8" stroke="url(&quot;#SvgjsLinearGradient1054&quot;)" stroke-linecap="round" class="TopLeft"></path><path d="M643 82L823 262" stroke-width="6" stroke="url(&quot;#SvgjsLinearGradient1053&quot;)" stroke-linecap="round" class="BottomRight"></path><path d="M162 304L1 143" stroke-width="10" stroke="url(&quot;#SvgjsLinearGradient1053&quot;)" stroke-linecap="round" class="BottomRight"></path><path d="M913 280L1135 502" stroke-width="8" stroke="url(&quot;#SvgjsLinearGradient1053&quot;)" stroke-linecap="round" class="BottomRight"></path><path d="M554 531L907 884" stroke-width="10" stroke="url(&quot;#SvgjsLinearGradient1053&quot;)" stroke-linecap="round" class="BottomRight"></path><path d="M1589 389L1877 677" stroke-width="6" stroke="url(&quot;#SvgjsLinearGradient1053&quot;)" stroke-linecap="round" class="BottomRight"></path><path d="M91 281L-311 -121" stroke-width="6" stroke="url(&quot;#SvgjsLinearGradient1053&quot;)" stroke-linecap="round" class="BottomRight"></path><path d="M468 68L632 232" stroke-width="6" stroke="url(&quot;#SvgjsLinearGradient1053&quot;)" stroke-linecap="round" class="BottomRight"></path><path d="M1088 393L836 141" stroke-width="10" stroke="url(&quot;#SvgjsLinearGradient1053&quot;)" stroke-linecap="round" class="BottomRight"></path><path d="M290 444L87 241" stroke-width="8" stroke="url(&quot;#SvgjsLinearGradient1054&quot;)" stroke-linecap="round" class="TopLeft"></path><path d="M1496 527L1665 696" stroke-width="10" stroke="url(&quot;#SvgjsLinearGradient1053&quot;)" stroke-linecap="round" class="BottomRight"></path><path d="M1632 365L1294 27" stroke-width="8" stroke="url(&quot;#SvgjsLinearGradient1053&quot;)" stroke-linecap="round" class="BottomRight"></path><path d="M1416 63L1675 322" stroke-width="6" stroke="url(&quot;#SvgjsLinearGradient1054&quot;)" stroke-linecap="round" class="TopLeft"></path><path d="M1433 554L1107 228" stroke-width="6" stroke="url(&quot;#SvgjsLinearGradient1053&quot;)" stroke-linecap="round" class="BottomRight"></path><path d="M1214 458L1065 309" stroke-width="8" stroke="url(&quot;#SvgjsLinearGradient1053&quot;)" stroke-linecap="round" class="BottomRight"></path><path d="M221 419L-156 42" stroke-width="8" stroke="url(&quot;#SvgjsLinearGradient1053&quot;)" stroke-linecap="round" class="BottomRight"></path><path d="M1110 514L1513 917" stroke-width="10" stroke="url(&quot;#SvgjsLinearGradient1053&quot;)" stroke-linecap="round" class="BottomRight"></path><path d="M1045 216L641 -188" stroke-width="8" stroke="url(&quot;#SvgjsLinearGradient1053&quot;)" stroke-linecap="round" class="BottomRight"></path><path d="M925 548L591 214" stroke-width="6" stroke="url(&quot;#SvgjsLinearGradient1053&quot;)" stroke-linecap="round" class="BottomRight"></path><path d="M692 208L376 -108" stroke-width="10" stroke="url(&quot;#SvgjsLinearGradient1053&quot;)" stroke-linecap="round" class="BottomRight"></path><path d="M348 160L-11 -199" stroke-width="6" stroke="url(&quot;#SvgjsLinearGradient1054&quot;)" stroke-linecap="round" class="TopLeft"></path><path d="M946 494L572 120" stroke-width="6" stroke="url(&quot;#SvgjsLinearGradient1053&quot;)" stroke-linecap="round" class="BottomRight"></path><path d="M1879 151L1679 -49" stroke-width="6" stroke="url(&quot;#SvgjsLinearGradient1053&quot;)" stroke-linecap="round" class="BottomRight"></path><path d="M1148 168L1382 402" stroke-width="6" stroke="url(&quot;#SvgjsLinearGradient1054&quot;)" stroke-linecap="round" class="TopLeft"></path><path d="M1829 495L1989 655" stroke-width="8" stroke="url(&quot;#SvgjsLinearGradient1053&quot;)" stroke-linecap="round" class="BottomRight"></path><path d="M210 171L-162 -201" stroke-width="10" stroke="url(&quot;#SvgjsLinearGradient1054&quot;)" stroke-linecap="round" class="TopLeft"></path><path d="M1188 321L1432 565" stroke-width="8" stroke="url(&quot;#SvgjsLinearGradient1054&quot;)" stroke-linecap="round" class="TopLeft"></path><path d="M1656 27L1805 176" stroke-width="10" stroke="url(&quot;#SvgjsLinearGradient1053&quot;)" stroke-linecap="round" class="BottomRight"></path><path d="M1908 10L1719 -179" stroke-width="8" stroke="url(&quot;#SvgjsLinearGradient1053&quot;)" stroke-linecap="round" class="BottomRight"></path><path d="M1239 391L942 94" stroke-width="10" stroke="url(&quot;#SvgjsLinearGradient1054&quot;)" stroke-linecap="round" class="TopLeft"></path><path d="M772 359L1050 637" stroke-width="8" stroke="url(&quot;#SvgjsLinearGradient1054&quot;)" stroke-linecap="round" class="TopLeft"></path><path d="M1840 106L2043 309" stroke-width="6" stroke="url(&quot;#SvgjsLinearGradient1053&quot;)" stroke-linecap="round" class="BottomRight"></path><path d="M802 542L1054 794" stroke-width="6" stroke="url(&quot;#SvgjsLinearGradient1053&quot;)" stroke-linecap="round" class="BottomRight"></path></g><defs><mask id="SvgjsMask1052"><rect width="2000" height="560" fill="#ffffff"></rect></mask><linearGradient x1="0%" y1="0%" x2="100%" y2="100%" id="SvgjsLinearGradient1053"><stop stop-color="rgba(255, 18, 58, 0)" offset="0"></stop><stop stop-color="rgba(255, 18, 58, 1)" offset="1"></stop></linearGradient><linearGradient x1="100%" y1="100%" x2="0%" y2="0%" id="SvgjsLinearGradient1054"><stop stop-color="rgba(255, 18, 58, 0)" offset="0"></stop><stop stop-color="rgba(255, 18, 58, 1)" offset="1"></stop></linearGradient></defs></svg>