<svg xmlns="http://www.w3.org/2000/svg" version="1.1" xmlns:xlink="http://www.w3.org/1999/xlink" xmlns:svgjs="http://svgjs.dev/svgjs" width="1440" height="560" preserveAspectRatio="none" viewBox="0 0 1440 560"><g mask="url(&quot;#SvgjsMask1046&quot;)" fill="none"><path d="M1376 435L1692 751" stroke-width="6" stroke="url(&quot;#SvgjsLinearGradient1047&quot;)" stroke-linecap="round" class="BottomRight"></path><path d="M1385 497L1044 156" stroke-width="6" stroke="url(&quot;#SvgjsLinearGradient1048&quot;)" stroke-linecap="round" class="TopLeft"></path><path d="M693 549L317 173" stroke-width="8" stroke="url(&quot;#SvgjsLinearGradient1047&quot;)" stroke-linecap="round" class="BottomRight"></path><path d="M473 354L298 179" stroke-width="6" stroke="url(&quot;#SvgjsLinearGradient1048&quot;)" stroke-linecap="round" class="TopLeft"></path><path d="M831 228L1166 563" stroke-width="8" stroke="url(&quot;#SvgjsLinearGradient1047&quot;)" stroke-linecap="round" class="BottomRight"></path><path d="M123 458L-262 73" stroke-width="8" stroke="url(&quot;#SvgjsLinearGradient1048&quot;)" stroke-linecap="round" class="TopLeft"></path><path d="M1351 34L1108 -209" stroke-width="6" stroke="url(&quot;#SvgjsLinearGradient1048&quot;)" stroke-linecap="round" class="TopLeft"></path><path d="M257 365L-136 -28" stroke-width="10" stroke="url(&quot;#SvgjsLinearGradient1048&quot;)" stroke-linecap="round" class="TopLeft"></path><path d="M1261 157L1625 521" stroke-width="6" stroke="url(&quot;#SvgjsLinearGradient1048&quot;)" stroke-linecap="round" class="TopLeft"></path><path d="M133 518L-101 284" stroke-width="10" stroke="url(&quot;#SvgjsLinearGradient1048&quot;)" stroke-linecap="round" class="TopLeft"></path><path d="M1284 254L1571 541" stroke-width="10" stroke="url(&quot;#SvgjsLinearGradient1048&quot;)" stroke-linecap="round" class="TopLeft"></path><path d="M250 122L34 -94" stroke-width="8" stroke="url(&quot;#SvgjsLinearGradient1047&quot;)" stroke-linecap="round" class="BottomRight"></path><path d="M568 216L963 611" stroke-width="8" stroke="url(&quot;#SvgjsLinearGradient1048&quot;)" stroke-linecap="round" class="TopLeft"></path><path d="M339 17L594 272" stroke-width="8" stroke="url(&quot;#SvgjsLinearGradient1048&quot;)" stroke-linecap="round" class="TopLeft"></path><path d="M1369 333L1563 527" stroke-width="10" stroke="url(&quot;#SvgjsLinearGradient1047&quot;)" stroke-linecap="round" class="BottomRight"></path><path d="M1309 15L891 -403" stroke-width="10" stroke="url(&quot;#SvgjsLinearGradient1048&quot;)" stroke-linecap="round" class="TopLeft"></path><path d="M589 92L425 -72" stroke-width="6" stroke="url(&quot;#SvgjsLinearGradient1048&quot;)" stroke-linecap="round" class="TopLeft"></path><path d="M1262 285L997 20" stroke-width="10" stroke="url(&quot;#SvgjsLinearGradient1048&quot;)" stroke-linecap="round" class="TopLeft"></path><path d="M102 537L342 777" stroke-width="10" stroke="url(&quot;#SvgjsLinearGradient1047&quot;)" stroke-linecap="round" class="BottomRight"></path><path d="M411 423L795 807" stroke-width="8" stroke="url(&quot;#SvgjsLinearGradient1047&quot;)" stroke-linecap="round" class="BottomRight"></path><path d="M684 323L829 468" stroke-width="10" stroke="url(&quot;#SvgjsLinearGradient1047&quot;)" stroke-linecap="round" class="BottomRight"></path><path d="M153 169L402 418" stroke-width="8" stroke="url(&quot;#SvgjsLinearGradient1047&quot;)" stroke-linecap="round" class="BottomRight"></path><path d="M1137 400L864 127" stroke-width="6" stroke="url(&quot;#SvgjsLinearGradient1048&quot;)" stroke-linecap="round" class="TopLeft"></path><path d="M513 553L358 398" stroke-width="10" stroke="url(&quot;#SvgjsLinearGradient1048&quot;)" stroke-linecap="round" class="TopLeft"></path><path d="M98 297L-101 98" stroke-width="10" stroke="url(&quot;#SvgjsLinearGradient1047&quot;)" stroke-linecap="round" class="BottomRight"></path><path d="M33 14L-332 -351" stroke-width="10" stroke="url(&quot;#SvgjsLinearGradient1047&quot;)" stroke-linecap="round" class="BottomRight"></path><path d="M197 349L-22 130" stroke-width="10" stroke="url(&quot;#SvgjsLinearGradient1047&quot;)" stroke-linecap="round" class="BottomRight"></path><path d="M663 268L898 503" stroke-width="8" stroke="url(&quot;#SvgjsLinearGradient1047&quot;)" stroke-linecap="round" class="BottomRight"></path><path d="M92 315L487 710" stroke-width="10" stroke="url(&quot;#SvgjsLinearGradient1048&quot;)" stroke-linecap="round" class="TopLeft"></path><path d="M1139 101L812 -226" stroke-width="6" stroke="url(&quot;#SvgjsLinearGradient1047&quot;)" stroke-linecap="round" class="BottomRight"></path><path d="M629 436L816 623" stroke-width="10" stroke="url(&quot;#SvgjsLinearGradient1048&quot;)" stroke-linecap="round" class="TopLeft"></path><path d="M598 325L910 637" stroke-width="10" stroke="url(&quot;#SvgjsLinearGradient1048&quot;)" stroke-linecap="round" class="TopLeft"></path><path d="M204 56L456 308" stroke-width="10" stroke="url(&quot;#SvgjsLinearGradient1047&quot;)" stroke-linecap="round" class="BottomRight"></path><path d="M29 202L-116 57" stroke-width="10" stroke="url(&quot;#SvgjsLinearGradient1047&quot;)" stroke-linecap="round" class="BottomRight"></path><path d="M862 253L604 -5" stroke-width="6" stroke="url(&quot;#SvgjsLinearGradient1047&quot;)" stroke-linecap="round" class="BottomRight"></path><path d="M429 524L274 369" stroke-width="8" stroke="url(&quot;#SvgjsLinearGradient1048&quot;)" stroke-linecap="round" class="TopLeft"></path><path d="M1242 316L949 23" stroke-width="10" stroke="url(&quot;#SvgjsLinearGradient1048&quot;)" stroke-linecap="round" class="TopLeft"></path><path d="M642 325L233 -84" stroke-width="8" stroke="url(&quot;#SvgjsLinearGradient1048&quot;)" stroke-linecap="round" class="TopLeft"></path><path d="M1374 302L1725 653" stroke-width="8" stroke="url(&quot;#SvgjsLinearGradient1048&quot;)" stroke-linecap="round" class="TopLeft"></path></g><defs><mask id="SvgjsMask1046"><rect width="1440" height="560" fill="#ffffff"></rect></mask><linearGradient x1="0%" y1="0%" x2="100%" y2="100%" id="SvgjsLinearGradient1047"><stop stop-color="rgba(255, 18, 58, 0)" offset="0"></stop><stop stop-color="rgba(255, 18, 58, 1)" offset="1"></stop></linearGradient><linearGradient x1="100%" y1="100%" x2="0%" y2="0%" id="SvgjsLinearGradient1048"><stop stop-color="rgba(255, 18, 58, 0)" offset="0"></stop><stop stop-color="rgba(255, 18, 58, 1)" offset="1"></stop></linearGradient></defs></svg>