<svg xmlns="http://www.w3.org/2000/svg" version="1.1" xmlns:xlink="http://www.w3.org/1999/xlink" xmlns:svgjs="http://svgjs.dev/svgjs" width="1440" height="560" preserveAspectRatio="none" viewBox="0 0 1440 560"><g mask="url(&quot;#SvgjsMask1064&quot;)" fill="none"><path d="M821 536L555 270" stroke-width="8" stroke="url(&quot;#SvgjsLinearGradient1065&quot;)" stroke-linecap="round" class="TopLeft"></path><path d="M1425 178L1651 404" stroke-width="8" stroke="url(&quot;#SvgjsLinearGradient1066&quot;)" stroke-linecap="round" class="BottomRight"></path><path d="M434 291L749 606" stroke-width="10" stroke="url(&quot;#SvgjsLinearGradient1065&quot;)" stroke-linecap="round" class="TopLeft"></path><path d="M461 30L109 -322" stroke-width="10" stroke="url(&quot;#SvgjsLinearGradient1066&quot;)" stroke-linecap="round" class="BottomRight"></path><path d="M709 443L895 629" stroke-width="10" stroke="url(&quot;#SvgjsLinearGradient1066&quot;)" stroke-linecap="round" class="BottomRight"></path><path d="M831 243L1061 473" stroke-width="8" stroke="url(&quot;#SvgjsLinearGradient1065&quot;)" stroke-linecap="round" class="TopLeft"></path><path d="M455 521L230 296" stroke-width="8" stroke="url(&quot;#SvgjsLinearGradient1065&quot;)" stroke-linecap="round" class="TopLeft"></path><path d="M948 470L1307 829" stroke-width="10" stroke="url(&quot;#SvgjsLinearGradient1065&quot;)" stroke-linecap="round" class="TopLeft"></path><path d="M136 172L-269 -233" stroke-width="8" stroke="url(&quot;#SvgjsLinearGradient1065&quot;)" stroke-linecap="round" class="TopLeft"></path><path d="M724 528L409 213" stroke-width="10" stroke="url(&quot;#SvgjsLinearGradient1065&quot;)" stroke-linecap="round" class="TopLeft"></path><path d="M718 259L1121 662" stroke-width="10" stroke="url(&quot;#SvgjsLinearGradient1066&quot;)" stroke-linecap="round" class="BottomRight"></path><path d="M1219 79L893 -247" stroke-width="10" stroke="url(&quot;#SvgjsLinearGradient1066&quot;)" stroke-linecap="round" class="BottomRight"></path><path d="M1193 32L1546 385" stroke-width="6" stroke="url(&quot;#SvgjsLinearGradient1066&quot;)" stroke-linecap="round" class="BottomRight"></path><path d="M137 546L-160 249" stroke-width="8" stroke="url(&quot;#SvgjsLinearGradient1066&quot;)" stroke-linecap="round" class="BottomRight"></path><path d="M235 421L9 195" stroke-width="10" stroke="url(&quot;#SvgjsLinearGradient1065&quot;)" stroke-linecap="round" class="TopLeft"></path><path d="M1341 487L1713 859" stroke-width="8" stroke="url(&quot;#SvgjsLinearGradient1066&quot;)" stroke-linecap="round" class="BottomRight"></path><path d="M1272 436L1595 759" stroke-width="6" stroke="url(&quot;#SvgjsLinearGradient1065&quot;)" stroke-linecap="round" class="TopLeft"></path><path d="M925 199L520 -206" stroke-width="8" stroke="url(&quot;#SvgjsLinearGradient1066&quot;)" stroke-linecap="round" class="BottomRight"></path><path d="M196 51L14 -131" stroke-width="6" stroke="url(&quot;#SvgjsLinearGradient1065&quot;)" stroke-linecap="round" class="TopLeft"></path><path d="M812 145L406 -261" stroke-width="6" stroke="url(&quot;#SvgjsLinearGradient1065&quot;)" stroke-linecap="round" class="TopLeft"></path><path d="M597 271L389 63" stroke-width="10" stroke="url(&quot;#SvgjsLinearGradient1066&quot;)" stroke-linecap="round" class="BottomRight"></path><path d="M968 354L660 46" stroke-width="6" stroke="url(&quot;#SvgjsLinearGradient1065&quot;)" stroke-linecap="round" class="TopLeft"></path><path d="M328 178L607 457" stroke-width="10" stroke="url(&quot;#SvgjsLinearGradient1065&quot;)" stroke-linecap="round" class="TopLeft"></path><path d="M638 543L868 773" stroke-width="6" stroke="url(&quot;#SvgjsLinearGradient1066&quot;)" stroke-linecap="round" class="BottomRight"></path><path d="M23 337L376 690" stroke-width="10" stroke="url(&quot;#SvgjsLinearGradient1066&quot;)" stroke-linecap="round" class="BottomRight"></path><path d="M357 273L605 521" stroke-width="10" stroke="url(&quot;#SvgjsLinearGradient1066&quot;)" stroke-linecap="round" class="BottomRight"></path><path d="M721 378L562 219" stroke-width="6" stroke="url(&quot;#SvgjsLinearGradient1066&quot;)" stroke-linecap="round" class="BottomRight"></path><path d="M198 12L-14 -200" stroke-width="6" stroke="url(&quot;#SvgjsLinearGradient1066&quot;)" stroke-linecap="round" class="BottomRight"></path><path d="M996 511L1204 719" stroke-width="8" stroke="url(&quot;#SvgjsLinearGradient1065&quot;)" stroke-linecap="round" class="TopLeft"></path><path d="M305 246L145 86" stroke-width="10" stroke="url(&quot;#SvgjsLinearGradient1065&quot;)" stroke-linecap="round" class="TopLeft"></path><path d="M1208 539L1426 757" stroke-width="10" stroke="url(&quot;#SvgjsLinearGradient1065&quot;)" stroke-linecap="round" class="TopLeft"></path><path d="M990 142L625 -223" stroke-width="10" stroke="url(&quot;#SvgjsLinearGradient1065&quot;)" stroke-linecap="round" class="TopLeft"></path><path d="M447 396L73 22" stroke-width="6" stroke="url(&quot;#SvgjsLinearGradient1066&quot;)" stroke-linecap="round" class="BottomRight"></path><path d="M196 49L506 359" stroke-width="6" stroke="url(&quot;#SvgjsLinearGradient1065&quot;)" stroke-linecap="round" class="TopLeft"></path><path d="M160 366L-57 149" stroke-width="10" stroke="url(&quot;#SvgjsLinearGradient1065&quot;)" stroke-linecap="round" class="TopLeft"></path><path d="M890 352L1132 594" stroke-width="8" stroke="url(&quot;#SvgjsLinearGradient1066&quot;)" stroke-linecap="round" class="BottomRight"></path><path d="M935 382L1281 728" stroke-width="6" stroke="url(&quot;#SvgjsLinearGradient1066&quot;)" stroke-linecap="round" class="BottomRight"></path><path d="M905 546L734 375" stroke-width="8" stroke="url(&quot;#SvgjsLinearGradient1065&quot;)" stroke-linecap="round" class="TopLeft"></path><path d="M561 128L703 270" stroke-width="10" stroke="url(&quot;#SvgjsLinearGradient1066&quot;)" stroke-linecap="round" class="BottomRight"></path></g><defs><mask id="SvgjsMask1064"><rect width="1440" height="560" fill="#ffffff"></rect></mask><linearGradient x1="100%" y1="100%" x2="0%" y2="0%" id="SvgjsLinearGradient1065"><stop stop-color="rgba(255, 18, 58, 0)" offset="0"></stop><stop stop-color="rgba(255, 18, 58, 1)" offset="1"></stop></linearGradient><linearGradient x1="0%" y1="0%" x2="100%" y2="100%" id="SvgjsLinearGradient1066"><stop stop-color="rgba(255, 18, 58, 0)" offset="0"></stop><stop stop-color="rgba(255, 18, 58, 1)" offset="1"></stop></linearGradient></defs></svg>